# xmcd
#
# Track frame offsets:
#	150
#	1068
#	18547
#	37328
#	46685
#	56323
#	64907
#	76503
#	88338
#	90380
#	95874
#	111605
#	128636
#	139133
#	149004
#	162339
#	167437
#	178284
#	187101
#	204753
#	207274
#	225094
#	246155
#	256711
#	273722
#
# Disc length: 4206 seconds
#
# Revision: 3
# Processed by: cddbd v1.5.2PL0 Copyright (c) Steve Scherf et al.
# Submitted via: dBpowerAMP V4.0
#
DISCID=5b106c19
DTITLE=Baby Drew - Live From The Trap House Volume 1
DYEAR=2007
DGENRE=milwaukee rap
TTITLE0=Intro Feat:Don Cannon and Dj Lil Larry
TTITLE1=Uncut No Mix Feat:Playboy,Ghetto Brown
TTITLE2=Tore Up
TTITLE3=Doctor Grind
TTITLE4=King of Milwaukee
TTITLE5=Roll With Me
TTITLE6=That's A Down MutherFucker
TTITLE7=Snitch Feat:Reesco
TTITLE8=Pimpin Ken Speaks
TTITLE9=Like Drew
TTITLE10=Meen Mug
TTITLE11=Where I'm From Feat: Ghetto Brown
TTITLE12=Hard Out Here
TTITLE13=It's On
TTITLE14=Turn Around Feat:Smokey M.B
TTITLE15=That Pimp
TTITLE16=I Be Around
TTITLE17=Disorderly Conduct
TTITLE18=Boss Me Feat Young Ges,Janx
TTITLE19=In The Club
TTITLE20=Aye!:Young Ges Featuring:Ghetto Brown,Janx
TTITLE21=Out Here Grind'n Feat: Boston "B"
TTITLE22=Ooh Ooh
TTITLE23=Outro
TTITLE24=DATA
EXTD=
EXTT0=
EXTT1=
EXTT2=
EXTT3=
EXTT4=
EXTT5=
EXTT6=
EXTT7=
EXTT8=
EXTT9=
EXTT10=
EXTT11=
EXTT12=
EXTT13=
EXTT14=
EXTT15=
EXTT16=
EXTT17=
EXTT18=
EXTT19=
EXTT20=
EXTT21=
EXTT22=
EXTT23=
EXTT24=
PLAYORDER=
